<svg width="44" height="44" viewBox="0 0 44 44" fill="none" xmlns="http://www.w3.org/2000/svg">
<path fill-rule="evenodd" clip-rule="evenodd" d="M30.325 0.109376C31.0225 0.109376 31.675 0.371876 32.1775 0.859376C33.19 1.83438 34.9525 4.11438 35.395 8.47188C35.4054 8.57046 35.3961 8.67011 35.3677 8.76508C35.3393 8.86005 35.2923 8.94845 35.2296 9.02516C35.1668 9.10188 35.0895 9.16539 35.002 9.21203C34.9145 9.25867 34.8187 9.28751 34.72 9.29688C34.5217 9.31378 34.3246 9.25275 34.1706 9.12672C34.0166 9.00069 33.9177 8.8196 33.895 8.62188C33.505 4.74438 31.9975 2.77188 31.1425 1.93938C30.9199 1.72786 30.6246 1.60976 30.3175 1.60938H6.415L6.52 1.72188C10.7725 7.18938 9.1 13.5044 6.9175 19.7294L6.7225 20.2994L6.4225 21.1469L6.2125 21.7094C4.7575 25.7594 3.25 29.9369 3.25 33.8594C3.25 34.8119 3.295 35.6519 3.37 36.3944C3.43 36.0044 3.505 35.6219 3.595 35.2694C4.1125 33.4469 5.095 32.3594 6.25 32.3594H28.285C28.3632 30.6443 28.635 28.9435 29.095 27.2894C29.1477 27.0974 29.2745 26.9343 29.4475 26.8358C29.6205 26.7374 29.8256 26.7117 30.0175 26.7644C30.2094 26.8171 30.3726 26.9439 30.4711 27.1169C30.5695 27.2899 30.5952 27.4949 30.5425 27.6869C30.0925 29.3519 29.8525 30.8819 29.7925 32.3594H32.5C34.21 32.3594 35.5 34.7819 35.5 37.9844C35.5 41.1869 34.21 43.6094 32.5 43.6094H6.25C6.2275 43.6094 6.1525 43.6094 6.04 43.5869C5.89 43.5719 5.7475 43.5419 5.6125 43.4894C4.36 43.0919 1.75 41.3594 1.75 33.8594C1.75 29.6744 3.295 25.3694 4.795 21.1994C6.0175 17.8019 7.2025 14.4944 7.5475 11.3594H3.25C1.54 11.3594 0.25 8.93688 0.25 5.73438C0.25 4.17438 0.55 2.87688 1.15 1.85688C1.47814 1.31718 1.94117 0.872227 2.49349 0.565816C3.04582 0.259406 3.66841 0.102099 4.3 0.109376H30.325ZM32.5 33.8594H8.485C9.0025 34.9544 9.25 36.4994 9.25 37.9844C9.25 39.4694 9.0025 41.0144 8.485 42.1094H32.5C33.1 42.1094 34 40.4594 34 37.9844C34 35.5094 33.1 33.8594 32.5 33.8594ZM7.735 38.3594H4.765C4.855 40.6094 5.6725 42.0869 6.2425 42.1094H6.625C6.9325 42.0644 7.66 40.6844 7.735 38.3594ZM6.625 33.8594H6.25C5.905 33.8594 5.38 34.4819 5.05 35.6669C4.945 36.0419 4.87 36.4394 4.825 36.8594H7.69C7.5025 34.9844 6.9025 33.9044 6.625 33.8594ZM29.5 9.10938C31.0208 9.11159 32.5114 9.53413 33.8071 10.3303C35.1029 11.1265 36.1533 12.2654 36.8424 13.6211C37.5316 14.9768 37.8325 16.4966 37.7121 18.0127C37.5917 19.5287 37.0545 20.982 36.16 22.2119L43.015 29.0669C43.1379 29.2104 43.2021 29.3949 43.1948 29.5837C43.1875 29.7724 43.1092 29.9515 42.9757 30.085C42.8421 30.2186 42.663 30.2969 42.4743 30.3042C42.2855 30.3115 42.101 30.2472 41.9575 30.1244L35.17 23.3369C33.6425 24.7952 31.6119 25.6091 29.5 25.6094C27.3728 25.5187 25.3629 24.6098 23.8898 23.0726C22.4167 21.5353 21.5944 19.4885 21.5944 17.3594C21.5944 15.2303 22.4167 13.1834 23.8898 11.6462C25.3629 10.109 27.3728 9.2001 29.5 9.10938ZM20.5 26.3594C20.6989 26.3594 20.8897 26.4384 21.0303 26.579C21.171 26.7197 21.25 26.9105 21.25 27.1094C21.25 27.3083 21.171 27.4991 21.0303 27.6397C20.8897 27.7804 20.6989 27.8594 20.5 27.8594H11.5C11.3011 27.8594 11.1103 27.7804 10.9697 27.6397C10.829 27.4991 10.75 27.3083 10.75 27.1094C10.75 26.9105 10.829 26.7197 10.9697 26.579C11.1103 26.4384 11.3011 26.3594 11.5 26.3594H20.5ZM29.5 10.6094C27.7648 10.6912 26.1278 11.4381 24.9288 12.695C23.7297 13.9519 23.0608 15.6223 23.0608 17.3594C23.0608 19.0965 23.7297 20.7669 24.9288 22.0238C26.1278 23.2807 27.7648 24.0276 29.5 24.1094C31.2352 24.0276 32.8722 23.2807 34.0712 22.0238C35.2703 20.7669 35.9392 19.0965 35.9392 17.3594C35.9392 15.6223 35.2703 13.9519 34.0712 12.695C32.8722 11.4381 31.2352 10.6912 29.5 10.6094ZM18.8725 21.7919C18.971 21.7919 19.0685 21.8113 19.1595 21.849C19.2505 21.8867 19.3332 21.9419 19.4028 22.0115C19.4725 22.0812 19.5277 22.1639 19.5654 22.2549C19.6031 22.3459 19.6225 22.4434 19.6225 22.5419C19.6225 22.6404 19.6031 22.7379 19.5654 22.8289C19.5277 22.9199 19.4725 23.0026 19.4028 23.0722C19.3332 23.1418 19.2505 23.1971 19.1595 23.2348C19.0685 23.2725 18.971 23.2919 18.8725 23.2919H9.8725C9.67359 23.2919 9.48282 23.2129 9.34217 23.0722C9.20152 22.9316 9.1225 22.7408 9.1225 22.5419C9.1225 22.343 9.20152 22.1522 9.34217 22.0115C9.48282 21.8709 9.67359 21.7919 9.8725 21.7919H18.8725ZM17.3725 17.2919C17.5714 17.2919 17.7622 17.3709 17.9028 17.5115C18.0435 17.6522 18.1225 17.843 18.1225 18.0419C18.1225 18.2408 18.0435 18.4316 17.9028 18.5722C17.7622 18.7129 17.5714 18.7919 17.3725 18.7919H11.3725C11.1736 18.7919 10.9828 18.7129 10.8422 18.5722C10.7015 18.4316 10.6225 18.2408 10.6225 18.0419C10.6225 17.843 10.7015 17.6522 10.8422 17.5115C10.9828 17.3709 11.1736 17.2919 11.3725 17.2919H17.3725ZM18.1225 12.7919C18.3214 12.7919 18.5122 12.8709 18.6528 13.0115C18.7935 13.1522 18.8725 13.343 18.8725 13.5419C18.8725 13.7408 18.7935 13.9316 18.6528 14.0722C18.5122 14.2129 18.3214 14.2919 18.1225 14.2919H12.8725C12.6736 14.2919 12.4828 14.2129 12.3422 14.0722C12.2015 13.9316 12.1225 13.7408 12.1225 13.5419C12.1225 13.343 12.2015 13.1522 12.3422 13.0115C12.4828 12.8709 12.6736 12.7919 12.8725 12.7919H18.1225ZM4 1.88688C3.78651 1.86057 3.56989 1.87828 3.36351 1.93891C3.15713 1.99953 2.96535 2.10179 2.8 2.23938C2.64519 2.36179 2.51749 2.51503 2.425 2.68938H2.41C2.2975 2.89188 2.2 3.10188 2.11 3.34188C2.635 2.81688 3.2875 2.51688 3.91 2.51688C4.615 2.51688 5.23 2.87688 5.65 3.52188C6.055 4.14438 6.2575 5.01438 6.2575 6.10938C6.2575 7.90938 5.905 9.07938 5.455 9.85938H7.6525C7.6975 7.30938 7.0825 4.88688 5.335 2.63688C5.17341 2.42949 4.97214 2.25637 4.74294 2.1276C4.51373 1.99883 4.26117 1.917 4 1.88688ZM4.72 6.85938H1.8175C2.035 8.69688 2.7475 9.85938 3.25 9.85938C3.7 9.82188 4.57 9.13938 4.7275 6.85938H4.72ZM20.5 8.35938C20.6989 8.35938 20.8897 8.43839 21.0303 8.57905C21.171 8.7197 21.25 8.91046 21.25 9.10938C21.25 9.30829 21.171 9.49905 21.0303 9.63971C20.8897 9.78036 20.6989 9.85938 20.5 9.85938H13.75C13.5511 9.85938 13.3603 9.78036 13.2197 9.63971C13.079 9.49905 13 9.30829 13 9.10938C13 8.91046 13.079 8.7197 13.2197 8.57905C13.3603 8.43839 13.5511 8.35938 13.75 8.35938H20.5ZM3.895 4.01688C3.46 4.01688 2.845 4.53438 2.605 5.35938H4.705C4.67411 4.99974 4.56397 4.6514 4.3825 4.33938C4.18 4.01688 3.97 4.01688 3.895 4.01688Z" fill="black"/>
</svg>
