<svg width="42" height="39" viewBox="0 0 42 39" fill="none" xmlns="http://www.w3.org/2000/svg">
<path fill-rule="evenodd" clip-rule="evenodd" d="M37.3275 38.9956C38.565 38.9956 39.7425 38.4931 40.6125 37.6156C41.4956 36.7287 41.994 35.5297 42 34.2781C42.0057 33.6655 41.8863 33.0581 41.649 32.4932C41.4117 31.9284 41.0615 31.4179 40.62 30.9931C40.1908 30.5574 39.6795 30.2112 39.1157 29.9743C38.5518 29.7374 37.9466 29.6147 37.335 29.6131C36.885 29.6131 36.435 29.6581 35.985 29.7556H35.895L22.08 16.4131L18.885 13.3306L12.885 7.66063L11.7525 6.45313L10.2975 5.04313C9.10971 3.91781 7.81338 2.91291 6.4275 2.04313C5.40558 1.3685 4.22269 0.977653 3 0.910629H0.75C0.551088 0.910629 0.360322 0.989647 0.21967 1.1303C0.0790178 1.27095 0 1.46172 0 1.66063C0 1.85954 0.0790178 2.05031 0.21967 2.19096C0.360322 2.33161 0.551088 2.41063 0.75 2.41063H3C3.93 2.49313 4.815 2.80813 5.595 3.31813C6.90163 4.14187 8.1227 5.0941 9.24 6.16063L10.74 7.59313V17.0881C10.755 18.8806 11.2125 20.6356 12.0825 22.2031L12.15 22.3156L9.2025 25.2031C9.06 25.3606 8.9775 25.5631 8.9475 25.7806V29.6206H8.8125C7.90055 29.8136 7.06878 30.2791 6.4275 30.9556C5.98596 31.3804 5.63582 31.8909 5.39852 32.4557C5.16122 33.0206 5.04178 33.628 5.0475 34.2406C5.0494 35.493 5.54845 36.6935 6.435 37.5781C6.86864 38.0151 7.38448 38.3619 7.95279 38.5986C8.5211 38.8353 9.13063 38.9571 9.74625 38.9571C10.3619 38.9571 10.9714 38.8353 11.5397 38.5986C12.108 38.3619 12.6239 38.0151 13.0575 37.5781C13.9399 36.6907 14.4382 35.4921 14.445 34.2406C14.4507 33.628 14.3313 33.0206 14.094 32.4557C13.8567 31.8909 13.5065 31.3804 13.065 30.9556L13.0125 30.8581C12.3564 30.2355 11.5372 29.8116 10.65 29.6356H10.515V26.1031L13.0125 23.6056L13.1325 23.7481C13.3725 24.0106 13.62 24.2581 13.8825 24.4981C14.8634 25.4889 16.0318 26.2743 17.3194 26.8087C18.6071 27.3431 19.9883 27.6157 21.3825 27.6106H31.5L34.5 30.4906L34.38 30.6106L34.26 30.7156C34.185 30.7831 34.11 30.8506 34.05 30.9331C33.6085 31.3579 33.2583 31.8684 33.021 32.4332C32.7837 32.9981 32.6643 33.6055 32.67 34.2181C32.67 35.4706 33.1725 36.6706 34.05 37.5556C34.4741 38.0003 34.9821 38.3565 35.5446 38.6037C36.1072 38.8508 36.7132 38.9841 37.3275 38.9956ZM11.955 31.9531L12.0075 32.0056V32.0581C12.5886 32.6542 12.9095 33.4565 12.8997 34.289C12.8898 35.1214 12.5501 35.916 11.955 36.4981C11.6645 36.7934 11.3183 37.0283 10.9365 37.189C10.5547 37.3498 10.1449 37.4332 9.73063 37.4346C9.31638 37.436 8.90596 37.3553 8.52308 37.1971C8.14021 37.039 7.79249 36.8065 7.5 36.5131C7.20066 36.2198 6.96286 35.8698 6.80051 35.4834C6.63816 35.0971 6.55454 34.6822 6.55454 34.2631C6.55454 33.8441 6.63816 33.4292 6.80051 33.0428C6.96286 32.6565 7.20066 32.3064 7.5 32.0131C7.79441 31.7203 8.1464 31.4918 8.5337 31.342C8.921 31.1923 9.33517 31.1245 9.75 31.1431C10.56 31.1431 11.34 31.4281 11.955 31.9531ZM21.3225 26.0731C20.1384 26.0811 18.9645 25.8538 17.8689 25.4043C16.7734 24.9548 15.7781 24.2922 14.9408 23.4549C14.1034 22.6175 13.4408 21.6222 12.9913 20.5267C12.5419 19.4312 12.3145 18.2572 12.3225 17.0731V9.13063L29.8875 26.0956L21.3225 26.0731ZM35.0775 32.0131C35.3734 31.7209 35.7252 31.4913 36.1117 31.338C36.4983 31.1847 36.9118 31.1107 37.3275 31.1206C37.9511 31.1235 38.5598 31.3114 39.0765 31.6606C39.5932 32.0097 39.9946 32.5044 40.23 33.0819C40.4653 33.6593 40.5239 34.2937 40.3984 34.9045C40.2729 35.5154 39.969 36.0752 39.525 36.5131C39.2433 36.8107 38.9037 37.0473 38.5271 37.2086C38.1504 37.3698 37.7447 37.4522 37.335 37.4506C36.7056 37.4533 36.0896 37.2687 35.5654 36.9203C35.0412 36.5719 34.6325 36.0754 34.3913 35.494C34.1501 34.9127 34.0872 34.2727 34.2108 33.6555C34.3343 33.0383 34.6386 32.4719 35.085 32.0281L35.0775 32.0131Z" fill="black"/>
</svg>
