<svg width="32" height="43" viewBox="0 0 32 43" fill="none" xmlns="http://www.w3.org/2000/svg">
<path fill-rule="evenodd" clip-rule="evenodd" d="M13.7875 10.9031C14.5092 10.6165 15.2944 10.5279 16.0619 10.6466C16.8293 10.7653 17.5511 11.0869 18.1525 11.5781C18.9647 12.2537 19.5897 13.1266 19.9675 14.1131C20.14 14.6381 20.275 15.1856 20.3725 15.7331L20.575 17.6231L20.7775 17.8931L21.0475 18.1631L26.62 21.3281C26.8189 21.4345 26.9674 21.6156 27.0328 21.8315C27.0982 22.0474 27.0752 22.2805 26.9688 22.4794C26.8623 22.6783 26.6813 22.8268 26.4654 22.8922C26.2495 22.9576 26.0164 22.9345 25.8175 22.8281L20.0875 19.5431C19.7875 19.3181 19.5325 19.0481 19.3375 18.7331L19 18.1331L18.805 15.9731C18.7329 15.536 18.6199 15.1066 18.4675 14.6906C18.4 14.5556 18.3325 14.3531 18.265 14.2181C18.0287 13.6859 17.6594 13.2236 17.1925 12.8756C16.8185 12.5818 16.3777 12.385 15.9093 12.3025C15.4409 12.2201 14.9594 12.2547 14.5075 12.4031C13.5625 12.8081 13.3675 13.6631 13.3 15.1631C13.2634 17.7606 13.6019 20.3498 14.305 22.8506C14.5225 23.9681 14.7925 25.0706 15.055 26.2181C15.2333 27.0925 15.4841 27.9504 15.805 28.7831C15.94 29.1806 16.5475 29.3831 17.62 29.4506C18.6925 29.5181 24.535 29.3831 25.345 29.3831H25.75L26.0275 29.6906C26.1265 29.7852 26.1977 29.9051 26.2334 30.0374C26.2691 30.1696 26.2679 30.309 26.23 30.4406L24.73 39.4406C24.655 39.7256 24.73 40.0256 24.9325 40.2431C25.0016 40.3788 25.1104 40.4902 25.2444 40.5625C25.3783 40.6349 25.5312 40.6647 25.6825 40.6481C26.1475 40.6631 26.5675 40.3481 26.6875 39.8981C27.43 37.4756 28.0975 35.1131 28.7725 32.6906C28.84 32.4206 28.9075 32.2181 28.975 32.0156C29.44 30.5306 29.845 29.0456 29.2375 27.8381C29.17 27.6356 28.975 27.4331 28.0975 27.3656C27.6925 27.3056 23.5975 26.8256 21.9175 26.5556L20.3725 26.3531C20.1487 26.3263 19.9448 26.2116 19.8055 26.0344C19.6663 25.8572 19.6032 25.6319 19.63 25.4081C19.6569 25.1843 19.7715 24.9804 19.9487 24.8412C20.126 24.7019 20.3512 24.6388 20.575 24.6656L22.1875 24.8681C23.8 25.1381 27.895 25.6106 28.3 25.6781C28.84 25.7456 30.1825 25.8806 30.7825 27.0281C31.75 28.7831 31.12 30.8006 30.52 32.5556L30.3175 33.1631C29.6425 35.5181 28.9075 37.9481 28.2325 40.3706C28.0637 40.9344 27.7181 41.429 27.2469 41.7814C26.7756 42.1339 26.2035 42.3255 25.615 42.3281H25.5475C25.1542 42.3129 24.7685 42.2148 24.4157 42.0404C24.0629 41.8659 23.7509 41.6189 23.5 41.3156C23.2472 41.021 23.0645 40.6729 22.9658 40.2974C22.867 39.922 22.8548 39.529 22.93 39.1481L24.28 31.1231C22.3975 31.1231 18.295 31.1906 17.3575 31.1231C16.75 31.0556 14.74 30.9206 14.1325 29.3681C13.7991 28.4916 13.5309 27.5916 13.33 26.6756C13.0525 25.4906 12.7825 24.3131 12.58 23.2406C11.8645 20.5811 11.5262 17.8343 11.575 15.0806C11.6425 13.9031 11.71 11.8481 13.7875 10.9031ZM8.71751 16.2431C8.92692 16.1912 9.14823 16.2203 9.33706 16.3247C9.52589 16.4291 9.66827 16.601 9.73565 16.806C9.80302 17.0109 9.79041 17.2338 9.70034 17.4299C9.61027 17.6259 9.44941 17.7807 9.25001 17.8631C7.72275 18.3472 6.33519 19.1934 5.20557 20.3295C4.07596 21.4657 3.23779 22.8581 2.76251 24.3881C2.03484 26.9087 2.30334 29.6124 3.51251 31.9406C4.22553 33.3074 5.24993 34.4874 6.50302 35.3853C7.75611 36.2832 9.20277 36.8739 10.7262 37.1097C12.2497 37.3454 13.8072 37.2197 15.2731 36.7426C16.739 36.2655 18.0722 35.4504 19.165 34.3631C19.3261 34.203 19.5443 34.1134 19.7714 34.1141C19.9986 34.1148 20.2161 34.2057 20.3763 34.3669C20.5364 34.528 20.6259 34.7461 20.6252 34.9733C20.6245 35.2004 20.5336 35.418 20.3725 35.5781C18.8925 37.0446 17.0396 38.0783 15.0144 38.5674C12.9891 39.0566 10.8687 38.9824 8.88251 38.3531C5.94538 37.4373 3.486 35.4036 2.03501 32.6906C0.632676 29.9612 0.342359 26.7946 1.22501 23.8556C2.33501 20.2481 5.12501 17.4056 8.71751 16.2431ZM17.755 0.328118C18.94 0.343118 20.065 0.860618 20.845 1.75312C21.2591 2.17683 21.5768 2.68507 21.7761 3.24301C21.9755 3.80096 22.0519 4.3954 22 4.98562C21.9428 6.17675 21.4236 7.29867 20.5525 8.11312C20.1577 8.504 19.6892 8.81265 19.1742 9.02121C18.6593 9.22977 18.1081 9.33409 17.5525 9.32812H17.4175C16.2278 9.26783 15.109 8.74442 14.3002 7.86981C13.4915 6.99521 13.0571 5.83887 13.09 4.64812C13.1419 3.47216 13.6472 2.362 14.5 1.55062C14.9306 1.13581 15.4415 0.813394 16.0012 0.603169C16.561 0.392943 17.1578 0.299344 17.755 0.328118ZM17.605 1.94062H17.5375C16.8164 1.94436 16.1252 2.22941 15.6111 2.7351C15.097 3.24079 14.8006 3.92717 14.785 4.64812C14.725 5.39812 15.0025 6.14812 15.535 6.67312C15.7851 6.94207 16.0864 7.15827 16.4213 7.30897C16.7562 7.45967 17.1179 7.54183 17.485 7.55062C18.235 7.58062 18.955 7.31062 19.5025 6.80062V6.80812C19.7847 6.56783 20.0049 6.26317 20.1446 5.91986C20.2843 5.57655 20.3393 5.20466 20.305 4.83562C20.365 4.08562 20.0875 3.33562 19.555 2.81062C19.304 2.54336 19.0024 2.32878 18.6675 2.1794C18.3327 2.03003 17.9715 1.94885 17.605 1.94062Z" fill="black"/>
</svg>
