<svg width="40" height="46" viewBox="0 0 40 46" fill="none" xmlns="http://www.w3.org/2000/svg">
<path fill-rule="evenodd" clip-rule="evenodd" d="M21.2 12.4062C25.49 12.4062 29 15.9087 29 20.2062V29.4087C29 30.7887 27.875 31.9062 26.5025 31.9062H25.2725L25.2125 43.1188C25.2125 44.5288 24.275 45.4062 22.7675 45.4062H17.0075C16.4108 45.4062 15.8385 45.1692 15.4165 44.7472C14.9946 44.3253 14.7575 43.753 14.7575 43.1562L14.75 31.9363L13.4975 31.9062C12.8351 31.9062 12.1999 31.6431 11.7315 31.1747C11.2631 30.7064 11 30.0711 11 29.4087V20.2137C11 15.9088 14.5025 12.4062 18.8 12.4062H21.2ZM21.2 13.9062H18.8C17.1304 13.9102 15.5302 14.5752 14.3496 15.7559C13.169 16.9365 12.504 18.5366 12.5 20.2062V29.4087C12.5 29.9562 12.95 30.4062 13.4975 30.4062H14.72C15.5675 30.4062 16.25 31.0888 16.25 31.9363V43.1562C16.25 43.2554 16.2696 43.3535 16.3078 43.445C16.346 43.5365 16.4019 43.6195 16.4723 43.6893C16.5428 43.759 16.6263 43.8141 16.7182 43.8513C16.81 43.8886 16.9084 43.9072 17.0075 43.9062H22.7675C23.6375 43.9062 23.7125 43.5013 23.7125 43.1188L23.75 31.9287C23.75 31.0887 24.4325 30.4062 25.2725 30.4062H26.5025C27.05 30.4062 27.5 29.9562 27.5 29.4087V20.2137C27.5 18.5422 26.8365 16.939 25.6552 15.7563C24.474 14.5737 22.8716 13.9082 21.2 13.9062ZM33.62 16.9062C35.1789 16.9082 36.6733 17.5284 37.7756 18.6307C38.8779 19.7329 39.498 21.2274 39.5 22.7863V29.5662C39.5004 30.1716 39.2663 30.7535 38.8468 31.1899C38.4272 31.6262 37.8549 31.883 37.25 31.9062V38.4237C37.248 39.0815 36.9858 39.7118 36.5207 40.177C36.0556 40.6421 35.4253 40.9043 34.7675 40.9062H30.545C29.9369 40.9043 29.3543 40.6618 28.9244 40.2319C28.4944 39.8019 28.252 39.2193 28.25 38.6112V33.3612C28.25 33.1623 28.329 32.9716 28.4697 32.8309C28.6103 32.6903 28.8011 32.6112 29 32.6112C29.1989 32.6112 29.3897 32.6903 29.5303 32.8309C29.671 32.9716 29.75 33.1623 29.75 33.3612V38.6112C29.75 39.0462 30.11 39.4062 30.545 39.4062H34.76C35.3075 39.4062 35.75 38.9637 35.75 38.4237V31.5088C35.75 30.9013 36.245 30.4062 36.8525 30.4062H37.16C37.625 30.4062 38 30.0312 38 29.5662V22.7863C37.998 21.6252 37.5359 20.5123 36.7149 19.6913C35.894 18.8703 34.781 18.4082 33.62 18.4062H31.88C31.6811 18.4062 31.4903 18.3272 31.3497 18.1866C31.209 18.0459 31.13 17.8552 31.13 17.6562C31.13 17.4573 31.209 17.2666 31.3497 17.1259C31.4903 16.9853 31.6811 16.9062 31.88 16.9062H33.62ZM8.12 16.9062C8.31891 16.9062 8.50968 16.9853 8.65033 17.1259C8.79098 17.2666 8.87 17.4573 8.87 17.6562C8.87 17.8552 8.79098 18.0459 8.65033 18.1866C8.50968 18.3272 8.31891 18.4062 8.12 18.4062H6.38C5.21896 18.4082 4.10604 18.8703 3.28506 19.6913C2.46408 20.5123 2.00198 21.6252 2 22.7863V29.5662C2 30.0312 2.375 30.4062 2.84 30.4062H3.14C3.755 30.4062 4.25 30.9013 4.25 31.5088V38.4163C4.25 38.9637 4.6925 39.4062 5.2325 39.4062H9.455C9.89 39.4062 10.25 39.0462 10.25 38.6112V33.3612C10.25 33.1623 10.329 32.9716 10.4697 32.8309C10.6103 32.6903 10.8011 32.6112 11 32.6112C11.1989 32.6112 11.3897 32.6903 11.5303 32.8309C11.671 32.9716 11.75 33.1623 11.75 33.3612V38.6112C11.748 39.2193 11.5056 39.8019 11.0756 40.2319C10.6457 40.6618 10.0631 40.9043 9.455 40.9062H5.225C4.56851 40.9023 3.94014 40.6392 3.47663 40.1743C3.01312 39.7094 2.75197 39.0802 2.75 38.4237V31.8988C2.14771 31.8756 1.57759 31.6209 1.15843 31.1878C0.739278 30.7546 0.503418 30.1765 0.5 29.5737V22.7863C0.501985 21.2274 1.12212 19.7329 2.2244 18.6307C3.32669 17.5284 4.82114 16.9082 6.38 16.9062H8.12ZM32.75 7.90625C33.243 7.90674 33.731 8.00432 34.1862 8.19342C34.6415 8.38252 35.055 8.65943 35.4032 9.00835C35.7514 9.35727 36.0275 9.77135 36.2157 10.227C36.4039 10.6826 36.5005 11.1708 36.5 11.6637C36.4995 12.1567 36.4019 12.6447 36.2128 13.1C36.0237 13.5552 35.7468 13.9687 35.3979 14.317C35.049 14.6652 34.6349 14.9413 34.1793 15.1294C33.7237 15.3176 33.2355 15.4142 32.7425 15.4137C31.7469 15.4128 30.7926 15.0163 30.0893 14.3116C29.386 13.607 28.9915 12.6518 28.9925 11.6562C28.9935 10.6607 29.3899 9.70631 30.0946 9.00305C30.7993 8.29978 31.7544 7.90526 32.75 7.90625ZM7.25 7.90625C7.74295 7.90674 8.23097 8.00432 8.68621 8.19342C9.14145 8.38252 9.55498 8.65943 9.9032 9.00835C10.2514 9.35727 10.5275 9.77135 10.7157 10.227C10.9039 10.6826 11.0005 11.1708 11 11.6637C10.9995 12.1567 10.9019 12.6447 10.7128 13.1C10.5237 13.5552 10.2468 13.9687 9.8979 14.317C9.54898 14.6652 9.1349 14.9413 8.67928 15.1294C8.22367 15.3176 7.73545 15.4142 7.2425 15.4137C6.24694 15.4128 5.29256 15.0163 4.5893 14.3116C3.88604 13.607 3.49151 12.6518 3.4925 11.6562C3.49349 10.6607 3.88993 9.70631 4.5946 9.00305C5.29927 8.29978 6.25444 7.90526 7.25 7.90625ZM32.75 9.40625C32.1533 9.40625 31.581 9.6433 31.159 10.0653C30.7371 10.4872 30.5 11.0595 30.5 11.6562C30.5 12.253 30.7371 12.8253 31.159 13.2472C31.581 13.6692 32.1533 13.9062 32.75 13.9062C33.3467 13.9062 33.919 13.6692 34.341 13.2472C34.7629 12.8253 35 12.253 35 11.6562C35 11.0595 34.7629 10.4872 34.341 10.0653C33.919 9.6433 33.3467 9.40625 32.75 9.40625ZM7.25 9.40625C6.65326 9.40625 6.08097 9.6433 5.65901 10.0653C5.23705 10.4872 5 11.0595 5 11.6562C5 12.253 5.23705 12.8253 5.65901 13.2472C6.08097 13.6692 6.65326 13.9062 7.25 13.9062C7.84674 13.9062 8.41903 13.6692 8.84099 13.2472C9.26295 12.8253 9.5 12.253 9.5 11.6562C9.5 11.0595 9.26295 10.4872 8.84099 10.0653C8.41903 9.6433 7.84674 9.40625 7.25 9.40625ZM20 0.40625C21.3924 0.40625 22.7277 0.959373 23.7123 1.94394C24.6969 2.92851 25.25 4.26386 25.25 5.65625C25.25 7.04864 24.6969 8.38399 23.7123 9.36856C22.7277 10.3531 21.3924 10.9062 20 10.9062C18.6076 10.9062 17.2723 10.3531 16.2877 9.36856C15.3031 8.38399 14.75 7.04864 14.75 5.65625C14.75 4.26386 15.3031 2.92851 16.2877 1.94394C17.2723 0.959373 18.6076 0.40625 20 0.40625ZM20 1.90625C19.0044 1.90724 18.0501 2.30368 17.3468 3.00835C16.6435 3.71302 16.249 4.66819 16.25 5.66375C16.251 6.65931 16.6474 7.61369 17.3521 8.31695C18.0568 9.02022 19.0119 9.41474 20.0075 9.41375C20.5004 9.41326 20.9885 9.31568 21.4437 9.12658C21.899 8.93748 22.3125 8.66057 22.6607 8.31165C23.0089 7.96273 23.285 7.54865 23.4732 7.09303C23.6614 6.63742 23.758 6.1492 23.7575 5.65625C23.757 5.1633 23.6594 4.67527 23.4703 4.22004C23.2812 3.7648 23.0043 3.35127 22.6554 3.00305C22.3065 2.65483 21.8924 2.37874 21.4368 2.19055C20.9812 2.00236 20.4929 1.90576 20 1.90625Z" fill="black"/>
</svg>
