<svg width="187" height="27" viewBox="0 0 187 27" fill="none" xmlns="http://www.w3.org/2000/svg">
<path d="M0.333374 26.5846V6.64615H4.02143V14.8431H12.7535V6.64615H16.4415V26.5846H12.7535V18.36H4.02143V26.5846H0.333374Z" fill="black"/>
<path d="M18.8923 26.5846L24.8583 6.64615H30.3633L36.3292 26.5846H32.5327L27.2176 9H27.9226L22.6888 26.5846H18.8923ZM22.4719 22.4308V18.9138H32.7768V22.4308H22.4719Z" fill="black"/>
<path d="M38.7595 26.5846V6.64615H47.0034C47.1932 6.64615 47.4463 6.65538 47.7627 6.67385C48.0881 6.68308 48.3774 6.71077 48.6305 6.75692C49.7966 6.94154 50.7502 7.33385 51.4914 7.93385C52.2417 8.53385 52.7931 9.29077 53.1456 10.2046C53.4982 11.1092 53.6744 12.12 53.6744 13.2369C53.6744 14.3538 53.4937 15.3692 53.1321 16.2831C52.7795 17.1877 52.2281 17.94 51.4779 18.54C50.7366 19.14 49.7875 19.5323 48.6305 19.7169C48.3774 19.7538 48.0881 19.7815 47.7627 19.8C47.4373 19.8185 47.1842 19.8277 47.0034 19.8277H42.4476V26.5846H38.7595ZM42.4476 16.3108H46.8407C47.0305 16.3108 47.2384 16.3015 47.4644 16.2831C47.6904 16.2646 47.8983 16.2277 48.0881 16.1723C48.5853 16.0338 48.9695 15.8031 49.2406 15.48C49.5118 15.1477 49.6971 14.7831 49.7966 14.3862C49.905 13.98 49.9593 13.5969 49.9593 13.2369C49.9593 12.8769 49.905 12.4985 49.7966 12.1015C49.6971 11.6954 49.5118 11.3308 49.2406 11.0077C48.9695 10.6754 48.5853 10.44 48.0881 10.3015C47.8983 10.2462 47.6904 10.2092 47.4644 10.1908C47.2384 10.1723 47.0305 10.1631 46.8407 10.1631H42.4476V16.3108Z" fill="black"/>
<path d="M56.3968 26.5846V6.64615H64.6407C64.8306 6.64615 65.0837 6.65538 65.4 6.67385C65.7255 6.68308 66.0147 6.71077 66.2678 6.75692C67.4339 6.94154 68.3876 7.33385 69.1288 7.93385C69.8791 8.53385 70.4305 9.29077 70.783 10.2046C71.1355 11.1092 71.3118 12.12 71.3118 13.2369C71.3118 14.3538 71.131 15.3692 70.7694 16.2831C70.4169 17.1877 69.8655 17.94 69.1152 18.54C68.374 19.14 67.4249 19.5323 66.2678 19.7169C66.0147 19.7538 65.7255 19.7815 65.4 19.8C65.0746 19.8185 64.8215 19.8277 64.6407 19.8277H60.0849V26.5846H56.3968ZM60.0849 16.3108H64.478C64.6679 16.3108 64.8758 16.3015 65.1018 16.2831C65.3277 16.2646 65.5356 16.2277 65.7255 16.1723C66.2226 16.0338 66.6068 15.8031 66.878 15.48C67.1492 15.1477 67.3345 14.7831 67.4339 14.3862C67.5424 13.98 67.5966 13.5969 67.5966 13.2369C67.5966 12.8769 67.5424 12.4985 67.4339 12.1015C67.3345 11.6954 67.1492 11.3308 66.878 11.0077C66.6068 10.6754 66.2226 10.44 65.7255 10.3015C65.5356 10.2462 65.3277 10.2092 65.1018 10.1908C64.8758 10.1723 64.6679 10.1631 64.478 10.1631H60.0849V16.3108Z" fill="black"/>
<path d="M78.807 26.5846V18.4708L72.1359 6.64615H76.4477L80.6781 14.1508L84.9085 6.64615H89.2203L82.5493 18.4708V26.5846H78.807Z" fill="black"/>
<path d="M103.594 27C102.365 27 101.194 26.7785 100.082 26.3354C98.9703 25.8831 97.985 25.2185 97.1263 24.3415C96.2766 23.4646 95.6032 22.38 95.106 21.0877C94.6179 19.7954 94.3738 18.3046 94.3738 16.6154C94.3738 14.4092 94.7851 12.5354 95.6077 10.9938C96.4393 9.44308 97.5511 8.26154 98.9432 7.44923C100.344 6.63692 101.895 6.23077 103.594 6.23077C106.107 6.23077 108.082 6.82615 109.519 8.01692C110.957 9.20769 111.919 10.8923 112.407 13.0708L108.638 13.6246C108.285 12.4615 107.707 11.5338 106.902 10.8415C106.107 10.14 105.085 9.78462 103.838 9.77538C102.6 9.75692 101.569 10.0292 100.747 10.5923C99.924 11.1554 99.3048 11.9538 98.889 12.9877C98.4822 14.0215 98.2788 15.2308 98.2788 16.6154C98.2788 18 98.4822 19.2 98.889 20.2154C99.3048 21.2308 99.924 22.02 100.747 22.5831C101.569 23.1462 102.6 23.4369 103.838 23.4554C104.679 23.4738 105.438 23.3262 106.116 23.0123C106.803 22.6985 107.381 22.2046 107.852 21.5308C108.322 20.8569 108.656 19.9938 108.855 18.9415H105.763V16.0338H112.787C112.805 16.1538 112.819 16.3662 112.828 16.6708C112.837 16.9754 112.841 17.1508 112.841 17.1969C112.841 19.1077 112.462 20.8015 111.702 22.2785C110.943 23.7554 109.872 24.9138 108.489 25.7538C107.106 26.5846 105.474 27 103.594 27Z" fill="black"/>
<path d="M113.673 26.5846L119.639 6.64615H125.144L131.11 26.5846H127.314L121.998 9H122.704L117.47 26.5846H113.673ZM117.253 22.4308V18.9138H127.558V22.4308H117.253Z" fill="black"/>
<path d="M133.812 26.5846V6.64615H137.5V23.0677H145.906V26.5846H133.812Z" fill="black"/>
<path d="M148.212 26.5846V6.64615H160.957V10.1631H151.9V14.4277H159.33V17.9446H151.9V23.0677H160.957V26.5846H148.212Z" fill="black"/>
<path d="M164.207 26.5846V6.64615H172.451C172.641 6.64615 172.894 6.65538 173.21 6.67385C173.536 6.68308 173.825 6.71077 174.078 6.75692C175.244 6.94154 176.198 7.33385 176.939 7.93385C177.689 8.53385 178.241 9.29077 178.593 10.2046C178.946 11.1092 179.122 12.12 179.122 13.2369C179.122 14.9077 178.715 16.3385 177.902 17.5292C177.088 18.7108 175.814 19.44 174.078 19.7169L172.451 19.8277H167.895V26.5846H164.207ZM175.217 26.5846L171.366 18.4708L175.163 17.7231L179.393 26.5846H175.217ZM167.895 16.3108H172.288C172.478 16.3108 172.686 16.3015 172.912 16.2831C173.138 16.2646 173.346 16.2277 173.536 16.1723C174.033 16.0338 174.417 15.8031 174.688 15.48C174.959 15.1477 175.145 14.7831 175.244 14.3862C175.353 13.98 175.407 13.5969 175.407 13.2369C175.407 12.8769 175.353 12.4985 175.244 12.1015C175.145 11.6954 174.959 11.3308 174.688 11.0077C174.417 10.6754 174.033 10.44 173.536 10.3015C173.346 10.2462 173.138 10.2092 172.912 10.1908C172.686 10.1723 172.478 10.1631 172.288 10.1631H167.895V16.3108Z" fill="black"/>
<path d="M182.645 3.76615V0H186.333V3.76615H182.645ZM182.645 26.5846V6.64615H186.333V26.5846H182.645Z" fill="black"/>
</svg>
