<svg width="49" height="49" viewBox="0 0 49 49" fill="none" xmlns="http://www.w3.org/2000/svg">
<g filter="url(#filter0_i_1_242)">
<rect x="0.328125" y="0.96875" width="48" height="48" rx="24" fill="white" fill-opacity="0.01"/>
<g clip-path="url(#clip0_1_242)">
<path d="M25.3481 14.9688C27.1481 14.9688 27.5281 14.9887 28.4481 15.0287C29.5081 15.0787 30.2381 15.2487 30.8681 15.4987C31.5281 15.7487 32.0881 16.0988 32.6381 16.6488C33.1981 17.1988 33.5381 17.7587 33.7981 18.4187C34.0481 19.0487 34.2081 19.7787 34.2581 20.8488C34.3081 21.7987 34.3181 22.1687 34.3181 24.1687V25.7688C34.3181 27.7688 34.3081 28.1388 34.2581 29.0888C34.2424 29.9156 34.0869 30.7338 33.7981 31.5088C33.5381 32.1688 33.1981 32.7288 32.6481 33.2787C32.0881 33.8387 31.5281 34.1787 30.8681 34.4387C30.2381 34.6887 29.5081 34.8488 28.4481 34.8988C27.4981 34.9487 27.1181 34.9587 25.1181 34.9587H23.5281C21.5281 34.9587 21.1581 34.9487 20.1981 34.8988C19.3713 34.8828 18.5531 34.7273 17.7781 34.4387C17.1117 34.1883 16.5078 33.7959 16.0081 33.2887C15.4959 32.7874 15.1 32.1798 14.8481 31.5088C14.5597 30.7337 14.4042 29.9156 14.3881 29.0888C14.3391 28.0562 14.3191 27.0224 14.3281 25.9888V23.9388C14.3281 22.1388 14.3481 21.7587 14.3881 20.8387C14.4381 19.7787 14.6081 19.0487 14.8481 18.4187C15.1081 17.7587 15.4481 17.1988 16.0081 16.6488C16.5033 16.1362 17.1086 15.7429 17.7781 15.4987C18.5526 15.207 19.3708 15.0481 20.1981 15.0287C21.1181 14.9887 21.4981 14.9688 23.2981 14.9688H25.3481ZM25.3681 16.7687H23.2781C21.5481 16.7687 21.1781 16.7887 20.2781 16.8287C19.3081 16.8687 18.7781 17.0287 18.4281 17.1687C17.9581 17.3487 17.6281 17.5687 17.2781 17.9187C16.9281 18.2687 16.7081 18.5987 16.5281 19.0687C16.3981 19.4187 16.2281 19.9488 16.1881 20.9288C16.1481 21.8288 16.1281 22.1888 16.1281 23.9288V26.0087C16.1281 27.7487 16.1481 28.1088 16.1881 29.0088C16.2281 29.9788 16.3881 30.5087 16.5281 30.8587C16.7081 31.3287 16.9281 31.6588 17.2781 32.0088C17.6281 32.3588 17.9581 32.5788 18.4281 32.7588C18.7781 32.8988 19.3081 33.0587 20.2881 33.0987C21.2581 33.1487 21.6081 33.1588 23.7681 33.1588H24.8781C27.0481 33.1588 27.3881 33.1487 28.3681 33.0987C29.3381 33.0587 29.8681 32.8988 30.2181 32.7588C30.6881 32.5788 31.0181 32.3588 31.3681 32.0088C31.7181 31.6588 31.9381 31.3287 32.1181 30.8587C32.2581 30.5087 32.4181 29.9788 32.4581 29.0088C32.5081 28.0288 32.5181 27.6888 32.5181 25.5188V24.4187C32.5181 22.2487 32.5081 21.8987 32.4581 20.9187C32.4181 19.9487 32.2581 19.4187 32.1181 19.0687C31.9572 18.6342 31.7009 18.2412 31.3681 17.9187C31.0459 17.5857 30.6529 17.3293 30.2181 17.1687C29.625 16.9519 28.9996 16.837 28.3681 16.8287C27.3689 16.781 26.3685 16.761 25.3681 16.7687ZM24.3281 19.8288C25.69 19.8288 26.9961 20.3698 27.9591 21.3328C28.9221 22.2958 29.4631 23.6019 29.4631 24.9637C29.4631 26.3256 28.9221 27.6317 27.9591 28.5947C26.9961 29.5577 25.69 30.0987 24.3281 30.0987C22.9662 30.0987 21.6601 29.5577 20.6971 28.5947C19.7341 27.6317 19.1931 26.3256 19.1931 24.9637C19.1931 23.6019 19.7341 22.2958 20.6971 21.3328C21.6601 20.3698 22.9662 19.8288 24.3281 19.8288ZM24.3281 21.6287C23.4436 21.6287 22.5954 21.9801 21.9699 22.6055C21.3445 23.231 20.9931 24.0793 20.9931 24.9637C20.9931 25.8482 21.3445 26.6965 21.9699 27.322C22.5954 27.9474 23.4436 28.2987 24.3281 28.2987C25.2126 28.2987 26.0609 27.9474 26.6863 27.322C27.3118 26.6965 27.6631 25.8482 27.6631 24.9637C27.6631 24.0793 27.3118 23.231 26.6863 22.6055C26.0609 21.9801 25.2126 21.6287 24.3281 21.6287ZM29.6581 18.4288C29.9764 18.4288 30.2816 18.5552 30.5067 18.7802C30.7317 19.0053 30.8581 19.3105 30.8581 19.6287C30.8581 19.947 30.7317 20.2522 30.5067 20.4773C30.2816 20.7023 29.9764 20.8288 29.6581 20.8288C29.3399 20.8288 29.0346 20.7023 28.8096 20.4773C28.5846 20.2522 28.4581 19.947 28.4581 19.6287C28.4581 19.3105 28.5846 19.0053 28.8096 18.7802C29.0346 18.5552 29.3399 18.4288 29.6581 18.4288Z" fill="white"/>
</g>
</g>
<defs>
<filter id="filter0_i_1_242" x="0.328125" y="0.96875" width="48" height="48" filterUnits="userSpaceOnUse" color-interpolation-filters="sRGB">
<feFlood flood-opacity="0" result="BackgroundImageFix"/>
<feBlend mode="normal" in="SourceGraphic" in2="BackgroundImageFix" result="shape"/>
<feColorMatrix in="SourceAlpha" type="matrix" values="0 0 0 0 0 0 0 0 0 0 0 0 0 0 0 0 0 0 127 0" result="hardAlpha"/>
<feMorphology radius="2" operator="erode" in="SourceAlpha" result="effect1_innerShadow_1_242"/>
<feOffset/>
<feComposite in2="hardAlpha" operator="arithmetic" k2="-1" k3="1"/>
<feColorMatrix type="matrix" values="0 0 0 0 0.2 0 0 0 0 0.2 0 0 0 0 0.2 0 0 0 1 0"/>
<feBlend mode="normal" in2="shape" result="effect1_innerShadow_1_242"/>
</filter>
<clipPath id="clip0_1_242">
<rect width="24" height="24" fill="white" transform="translate(12.3281 12.9688)"/>
</clipPath>
</defs>
</svg>
