<svg width="36" height="46" viewBox="0 0 36 46" fill="none" xmlns="http://www.w3.org/2000/svg">
<path fill-rule="evenodd" clip-rule="evenodd" d="M3.75 28.1562H32.25V3.40625H3.75V28.1562ZM18.75 1.90625V1.15625C18.75 0.957338 18.671 0.766572 18.5303 0.62592C18.3897 0.485268 18.1989 0.40625 18 0.40625C17.8011 0.40625 17.6103 0.485268 17.4697 0.62592C17.329 0.766572 17.25 0.957338 17.25 1.15625V1.90625H0.75C0.551088 1.90625 0.360322 1.98527 0.21967 2.12592C0.0790178 2.26657 0 2.45734 0 2.65625C0 2.85516 0.0790178 3.04593 0.21967 3.18658C0.360322 3.32723 0.551088 3.40625 0.75 3.40625H2.25V28.9062C2.25 29.1052 2.32902 29.2959 2.46967 29.4366C2.61032 29.5772 2.80109 29.6562 3 29.6562H33C33.1989 29.6562 33.3897 29.5772 33.5303 29.4366C33.671 29.2959 33.75 29.1052 33.75 28.9062V3.40625H35.25C35.4489 3.40625 35.6397 3.32723 35.7803 3.18658C35.921 3.04593 36 2.85516 36 2.65625C36 2.45734 35.921 2.26657 35.7803 2.12592C35.6397 1.98527 35.4489 1.90625 35.25 1.90625H18.75ZM18.75 43.9062V32.6562H24C24.1989 32.6562 24.3897 32.5772 24.5303 32.4366C24.671 32.2959 24.75 32.1052 24.75 31.9062C24.75 31.7073 24.671 31.5166 24.5303 31.3759C24.3897 31.2353 24.1989 31.1562 24 31.1562H12C11.8011 31.1562 11.6103 31.2353 11.4697 31.3759C11.329 31.5166 11.25 31.7073 11.25 31.9062C11.25 32.1052 11.329 32.2959 11.4697 32.4366C11.6103 32.5772 11.8011 32.6562 12 32.6562H17.25V43.9062H8.25C8.05109 43.9062 7.86032 43.9853 7.71967 44.1259C7.57902 44.2666 7.5 44.4573 7.5 44.6562C7.5 44.8552 7.57902 45.0459 7.71967 45.1866C7.86032 45.3272 8.05109 45.4062 8.25 45.4062H27.75C27.9489 45.4062 28.1397 45.3272 28.2803 45.1866C28.421 45.0459 28.5 44.8552 28.5 44.6562C28.5 44.4573 28.421 44.2666 28.2803 44.1259C28.1397 43.9853 27.9489 43.9062 27.75 43.9062H18.75ZM23.4375 15.7812C23.4375 15.5823 23.3585 15.3916 23.2178 15.2509C23.0772 15.1103 22.8864 15.0312 22.6875 15.0312H18.75V11.0938C18.75 10.8948 18.671 10.7041 18.5303 10.5634C18.3897 10.4228 18.1989 10.3438 18 10.3438C16.6073 10.4169 15.2957 11.0217 14.3358 12.0334C13.3758 13.0451 12.8407 14.3866 12.8407 15.7812C12.8407 17.1759 13.3758 18.5174 14.3358 19.5291C15.2957 20.5408 16.6073 21.1456 18 21.2188C21 21.2188 23.4375 18.7812 23.4375 15.7812Z" fill="black"/>
</svg>
