<svg width="48" height="48" viewBox="0 0 48 48" fill="none" xmlns="http://www.w3.org/2000/svg">
<g filter="url(#filter0_i_1_258)">
<rect width="48" height="48" rx="24" fill="white" fill-opacity="0.01"/>
<g clip-path="url(#clip0_1_258)">
<path d="M18.44 20.2C18.6789 20.2182 18.919 20.1868 19.1452 20.1078C19.3715 20.0288 19.5789 19.904 19.7547 19.7411C19.9304 19.5782 20.0706 19.3808 20.1665 19.1612C20.2623 18.9416 20.3118 18.7046 20.3118 18.465C20.3118 18.2254 20.2623 17.9884 20.1665 17.7688C20.0706 17.5492 19.9304 17.3518 19.7547 17.1889C19.5789 17.026 19.3715 16.9012 19.1452 16.8222C18.919 16.7432 18.6789 16.7119 18.44 16.73C18.0026 16.7632 17.5939 16.9605 17.2957 17.2822C16.9975 17.6039 16.8318 18.0264 16.8318 18.465C16.8318 18.9037 16.9975 19.3261 17.2957 19.6479C17.5939 19.9696 18.0026 20.1668 18.44 20.2ZM16.93 26.28V30.86C16.93 31.02 16.96 31.09 17.13 31.09H19.75C19.91 31.09 19.95 31.03 19.95 30.88V21.68C19.95 21.52 19.89 21.48 19.73 21.48H17.16C16.98 21.48 16.94 21.53 16.94 21.71V26.28M24.68 22.73V21.7C24.68 21.52 24.63 21.47 24.46 21.48H22C21.75 21.48 21.75 21.48 21.75 21.72V30.84C21.75 31.04 21.81 31.09 21.99 31.09H24.52C24.77 31.09 24.77 31.09 24.77 30.84V26.25C24.77 25.93 24.8 25.61 24.85 25.3C24.97 24.66 25.27 24.13 25.95 23.96C26.16 23.91 26.39 23.9 26.6 23.9C27.32 23.91 27.76 24.25 27.92 24.94C28.01 25.32 28.04 25.73 28.04 26.12C28.05 27.6933 28.05 29.2667 28.04 30.84C28.04 31.03 28.1 31.09 28.29 31.09H30.82C31 31.09 31.07 31.04 31.06 30.85C31.06 29.02 31.08 27.2 31.05 25.38C31.04 24.78 30.95 24.16 30.82 23.57C30.58 22.51 29.96 21.73 28.88 21.43C28.5 21.33 28.11 21.3 27.72 21.25C27.0765 21.1746 26.4257 21.3041 25.86 21.62C25.37 21.89 24.98 22.26 24.66 22.72M23.98 14.01L32.51 14C32.7017 13.996 32.8924 14.0299 33.0711 14.0996C33.2497 14.1693 33.4129 14.2735 33.5513 14.4063C33.6896 14.5391 33.8005 14.6979 33.8775 14.8735C33.9545 15.0492 33.9961 15.2383 34 15.43V32.58C34 33.34 33.4 33.97 32.64 34H15.5C14.8 34 14.26 33.62 14.07 32.97C14.0303 32.8335 14.0101 32.6921 14.01 32.55V15.45C14.01 14.65 14.62 14.02 15.43 14.01H24" fill="white"/>
</g>
</g>
<defs>
<filter id="filter0_i_1_258" x="0" y="0" width="48" height="48" filterUnits="userSpaceOnUse" color-interpolation-filters="sRGB">
<feFlood flood-opacity="0" result="BackgroundImageFix"/>
<feBlend mode="normal" in="SourceGraphic" in2="BackgroundImageFix" result="shape"/>
<feColorMatrix in="SourceAlpha" type="matrix" values="0 0 0 0 0 0 0 0 0 0 0 0 0 0 0 0 0 0 127 0" result="hardAlpha"/>
<feMorphology radius="2" operator="erode" in="SourceAlpha" result="effect1_innerShadow_1_258"/>
<feOffset/>
<feComposite in2="hardAlpha" operator="arithmetic" k2="-1" k3="1"/>
<feColorMatrix type="matrix" values="0 0 0 0 0.2 0 0 0 0 0.2 0 0 0 0 0.2 0 0 0 1 0"/>
<feBlend mode="normal" in2="shape" result="effect1_innerShadow_1_258"/>
</filter>
<clipPath id="clip0_1_258">
<rect width="24" height="24" fill="white" transform="translate(12 12)"/>
</clipPath>
</defs>
</svg>
