<svg width="49" height="49" viewBox="0 0 49 49" fill="none" xmlns="http://www.w3.org/2000/svg">
<g filter="url(#filter0_i_1_254)">
<rect x="0.328125" y="0.96875" width="48" height="48" rx="24" fill="white" fill-opacity="0.01"/>
<g clip-path="url(#clip0_1_254)">
<path d="M24.3281 14.9688C22.0036 14.977 19.7546 15.7948 17.9676 17.2815C16.1807 18.7683 14.9676 20.8311 14.5368 23.1154C14.106 25.3996 14.4844 27.7626 15.607 29.7981C16.7296 31.8336 18.5263 33.4144 20.6881 34.2687C20.5881 33.4787 20.5181 32.2688 20.7181 31.3988L21.8881 26.4288C21.8881 26.4288 21.5881 25.8287 21.5881 24.9487C21.5881 23.5587 22.3981 22.5288 23.4081 22.5288C24.2581 22.5288 24.6781 23.1687 24.6781 23.9288C24.6781 24.7887 24.1281 26.0688 23.8381 27.2587C23.5981 28.2587 24.3381 29.0688 25.3281 29.0688C27.1081 29.0688 28.4681 27.1987 28.4681 24.4987C28.4681 22.0987 26.7481 20.4387 24.2881 20.4387C23.7037 20.4131 23.1201 20.5061 22.5727 20.7122C22.0252 20.9183 21.5252 21.2331 21.1028 21.6378C20.6803 22.0425 20.3443 22.5285 20.1149 23.0666C19.8855 23.6048 19.7675 24.1838 19.7681 24.7688C19.7681 25.6287 20.0981 26.5487 20.5081 27.0487C20.5881 27.1488 20.5981 27.2387 20.5681 27.3387L20.2881 28.4688C20.2481 28.6488 20.1381 28.6988 19.9581 28.6088C18.6981 28.0188 17.9181 26.2087 17.9181 24.7288C17.9181 21.5788 20.2181 18.6887 24.5381 18.6887C27.9981 18.6887 30.7081 21.1487 30.7081 24.4587C30.7081 27.9087 28.5281 30.6787 25.5081 30.6787C24.5081 30.6787 23.5481 30.1487 23.2281 29.5287L22.5981 31.8988C22.303 32.8264 21.886 33.7108 21.3581 34.5287C22.7319 34.9503 24.1805 35.0708 25.6051 34.882C27.0297 34.6933 28.3969 34.1997 29.6135 33.4349C30.8301 32.6701 31.8677 31.6521 32.6554 30.4502C33.4431 29.2482 33.9625 27.8906 34.1782 26.4699C34.394 25.0491 34.3009 23.5985 33.9055 22.217C33.5101 20.8354 32.8215 19.5553 31.8867 18.4638C30.9519 17.3723 29.7929 16.4952 28.4885 15.892C27.1842 15.2889 25.7651 14.974 24.3281 14.9688Z" fill="white"/>
</g>
</g>
<defs>
<filter id="filter0_i_1_254" x="0.328125" y="0.96875" width="48" height="48" filterUnits="userSpaceOnUse" color-interpolation-filters="sRGB">
<feFlood flood-opacity="0" result="BackgroundImageFix"/>
<feBlend mode="normal" in="SourceGraphic" in2="BackgroundImageFix" result="shape"/>
<feColorMatrix in="SourceAlpha" type="matrix" values="0 0 0 0 0 0 0 0 0 0 0 0 0 0 0 0 0 0 127 0" result="hardAlpha"/>
<feMorphology radius="2" operator="erode" in="SourceAlpha" result="effect1_innerShadow_1_254"/>
<feOffset/>
<feComposite in2="hardAlpha" operator="arithmetic" k2="-1" k3="1"/>
<feColorMatrix type="matrix" values="0 0 0 0 0.2 0 0 0 0 0.2 0 0 0 0 0.2 0 0 0 1 0"/>
<feBlend mode="normal" in2="shape" result="effect1_innerShadow_1_254"/>
</filter>
<clipPath id="clip0_1_254">
<rect width="24" height="24" fill="white" transform="translate(12.3281 12.9688)"/>
</clipPath>
</defs>
</svg>
